<svg xmlns="http://www.w3.org/2000/svg" width="300" height="300" viewBox="0 0 300 300">
<rect width="300" height="300" fill="#FEF3C7"/>
<circle cx="150" cy="120" r="58" fill="#CA8A04" opacity="0.16"/>
<path d="M150 80 C120 80 104 104 104 132 C104 156 124 174 150 174 C176 174 196 156 196 132 C196 104 180 80 150 80 Z M150 92 C150 120 150 150 150 168" fill="none" stroke="#CA8A04" stroke-width="7" stroke-linecap="round"/>
<path d="M150 120 C134 112 120 116 112 128" fill="none" stroke="#CA8A04" stroke-width="7" stroke-linecap="round"/>
<path d="M150 132 C166 124 180 128 188 140" fill="none" stroke="#CA8A04" stroke-width="7" stroke-linecap="round"/>
<text x="150" y="222" font-family="Segoe UI,Arial,sans-serif" font-size="22" font-weight="800" fill="#CA8A04" text-anchor="middle">Rau củ</text>
<text x="150" y="250" font-family="Segoe UI,Arial,sans-serif" font-size="13" fill="#CA8A04" opacity="0.7" text-anchor="middle">Nông Sản Tuấn Tú</text>
</svg>